# xmcd
#
# Track frame offsets:
#	150
#	33375
#	75450
#	97103
#	137025
#	187950
#	222825
#	256575
#
# Disc length: 3810 seconds
#
# Revision: 0
# Processed by: cddbd v1.5.2PL0 Copyright (c) Steve Scherf et al.
# Submitted via: EZCDAudioConverter 8.3.2.1
#
DISCID=620ee008
DTITLE=Ludwig van Beethoven - Συμφωνία 5 και 7-Ludwig van Beethoven, 1984-1985
DYEAR=1984
DGENRE=Κλασική
TTITLE0=Συμφωνία αρ. 5 ντο ελάσσονα ερ. 67 01. Allegro con brio
TTITLE1=Συμφωνία αρ. 5 ντο ελάσσονα ερ. 67 02. Andante con moto
TTITLE2=Συμφωνία αρ. 5 ντο ελάσσονα ερ. 67 03. Allegro
TTITLE3=Συμφωνία αρ. 5 ντο ελάσσονα ερ. 67 04. Allegro
TTITLE4=Συμφωνία αρ. 7 ντο μείζονα ερ. 92 01. Poco sostenuto-Vivace
TTITLE5=Συμφωνία αρ. 7 ντο μείζονα ερ. 92 02. Allegretto
TTITLE6=Συμφωνία αρ. 7 ντο μείζονα ερ. 92 03. Presto
TTITLE7=Συμφωνία αρ. 7 ντο μείζονα ερ. 92 04. Allegro con brio
EXTD=
EXTT0=
EXTT1=
EXTT2=
EXTT3=
EXTT4=
EXTT5=
EXTT6=
EXTT7=
PLAYORDER=
